<?xml version='1.0' encoding='UTF-8'?>
<mxfile version="1.0" encoding="UTF-8"><diagram name="ArchiMate Model" id="archimate_diagram"><mxGraphModel dx="1050" dy="522" grid="1" gridSize="10"><root><mxCell id="0" /><mxCell id="1" parent="0" /><mxCell id="label_Motivation_Layer" value="Motivation Layer" style="text;html=1;align=center;verticalAlign=middle;resizable=0;points=[];" vertex="1" parent="1"><mxGeometry x="50" y="60" width="200" height="30" as="geometry" /></mxCell><mxCell id="elem_m1" value="Utilisateurs" style="html=1;outlineConnect=0;whiteSpace=wrap;fillColor=#CCCCFF;shape=mxgraph.archimate3.application;appType=role;archiType=oct;" vertex="1" parent="1"><mxGeometry x="100" y="100" width="120" height="60" as="geometry" /></mxCell><mxCell id="elem_m2" value="Collaboration efficace" style="html=1;outlineConnect=0;whiteSpace=wrap;fillColor=#CCCCFF;shape=mxgraph.archimate3.application;appType=driver;archiType=oct;" vertex="1" parent="1"><mxGeometry x="250" y="100" width="120" height="60" as="geometry" /></mxCell><mxCell id="elem_m3" value="Améliorer la gestion de projets" style="html=1;outlineConnect=0;whiteSpace=wrap;fillColor=#CCCCFF;shape=mxgraph.archimate3.application;appType=goal;archiType=oct;" vertex="1" parent="1"><mxGeometry x="400" y="100" width="120" height="60" as="geometry" /></mxCell><mxCell id="elem_m4" value="Projets livrés à temps" style="html=1;outlineConnect=0;whiteSpace=wrap;fillColor=#CCCCFF;shape=mxgraph.archimate3.application;appType=outcome;archiType=oct;" vertex="1" parent="1"><mxGeometry x="550" y="100" width="120" height="60" as="geometry" /></mxCell><mxCell id="elem_m5" value="Intégration avec d'autres outils" style="html=1;outlineConnect=0;whiteSpace=wrap;fillColor=#CCCCFF;shape=mxgraph.archimate3.application;appType=requirement;archiType=square;" vertex="1" parent="1"><mxGeometry x="700" y="100" width="120" height="60" as="geometry" /></mxCell><mxCell id="conn_elem_m2_elem_m3" style="html=1;shape=mxgraph.archimate3.relationship;archiType=influence;" edge="1" source="elem_m2" target="elem_m3" parent="1"><mxGeometry relative="1" as="geometry" /></mxCell><mxCell id="conn_elem_m3_elem_m4" style="html=1;shape=mxgraph.archimate3.relationship;archiType=assignment;" edge="1" source="elem_m3" target="elem_m4" parent="1"><mxGeometry relative="1" as="geometry" /></mxCell><mxCell id="conn_elem_m5_elem_m3" style="html=1;shape=mxgraph.archimate3.relationship;archiType=influence;" edge="1" source="elem_m5" target="elem_m3" parent="1"><mxGeometry relative="1" as="geometry" /></mxCell><mxCell id="label_Business_Layer" value="Business Layer" style="text;html=1;align=center;verticalAlign=middle;resizable=0;points=[];" vertex="1" parent="1"><mxGeometry x="50" y="360" width="200" height="30" as="geometry" /></mxCell><mxCell id="elem_b1" value="Chef de projet" style="html=1;outlineConnect=0;whiteSpace=wrap;fillColor=#ffff99;shape=mxgraph.archimate3.application;appType=actor;archiType=square;" vertex="1" parent="1"><mxGeometry x="100" y="400" width="120" height="60" as="geometry" /></mxCell><mxCell id="elem_b2" value="Membre de l'équipe" style="html=1;outlineConnect=0;whiteSpace=wrap;fillColor=#FFFFFF;shape=mxgraph.archimate3.rectangle;" vertex="1" parent="1"><mxGeometry x="250" y="400" width="120" height="60" as="geometry" /></mxCell><mxCell id="elem_b3" value="Création de projet" style="html=1;outlineConnect=0;whiteSpace=wrap;fillColor=#ffff99;shape=mxgraph.archimate3.application;appType=proc;archiType=rounded;" vertex="1" parent="1"><mxGeometry x="400" y="400" width="120" height="60" as="geometry" /></mxCell><mxCell id="elem_b4" value="Assignation de tâches" style="html=1;outlineConnect=0;whiteSpace=wrap;fillColor=#ffff99;shape=mxgraph.archimate3.application;appType=proc;archiType=rounded;" vertex="1" parent="1"><mxGeometry x="550" y="400" width="120" height="60" as="geometry" /></mxCell><mxCell id="elem_b5" value="Tableau de bord analytique" style="html=1;outlineConnect=0;whiteSpace=wrap;fillColor=#ffff99;shape=mxgraph.archimate3.application;appType=serv;archiType=rounded;" vertex="1" parent="1"><mxGeometry x="700" y="400" width="120" height="60" as="geometry" /></mxCell><mxCell id="elem_b6" value="Notifications en temps réel" style="html=1;outlineConnect=0;whiteSpace=wrap;fillColor=#ffff99;shape=mxgraph.archimate3.application;appType=serv;archiType=rounded;" vertex="1" parent="1"><mxGeometry x="850" y="400" width="120" height="60" as="geometry" /></mxCell><mxCell id="conn_elem_b1_elem_b3" style="html=1;shape=mxgraph.archimate3.relationship;archiType=assignment;" edge="1" source="elem_b1" target="elem_b3" parent="1"><mxGeometry relative="1" as="geometry" /></mxCell><mxCell id="conn_elem_b2_elem_b4" style="html=1;shape=mxgraph.archimate3.relationship;archiType=assignment;" edge="1" source="elem_b2" target="elem_b4" parent="1"><mxGeometry relative="1" as="geometry" /></mxCell><mxCell id="conn_elem_b1_elem_b5" style="html=1;shape=mxgraph.archimate3.relationship;archiType=serving;" edge="1" source="elem_b1" target="elem_b5" parent="1"><mxGeometry relative="1" as="geometry" /></mxCell><mxCell id="conn_elem_b2_elem_b6" style="html=1;shape=mxgraph.archimate3.relationship;archiType=serving;" edge="1" source="elem_b2" target="elem_b6" parent="1"><mxGeometry relative="1" as="geometry" /></mxCell><mxCell id="label_Application_Layer" value="Application Layer" style="text;html=1;align=center;verticalAlign=middle;resizable=0;points=[];" vertex="1" parent="1"><mxGeometry x="50" y="660" width="200" height="30" as="geometry" /></mxCell><mxCell id="elem_a1" value="Application SaaS TeamFlow" style="html=1;outlineConnect=0;whiteSpace=wrap;fillColor=#99ffff;shape=mxgraph.archimate3.application;appType=comp;archiType=square;" vertex="1" parent="1"><mxGeometry x="100" y="700" width="120" height="60" as="geometry" /></mxCell><mxCell id="elem_a2" value="Gestion des projets" style="html=1;outlineConnect=0;whiteSpace=wrap;fillColor=#FFFFFF;shape=mxgraph.archimate3.rectangle;" vertex="1" parent="1"><mxGeometry x="250" y="700" width="120" height="60" as="geometry" /></mxCell><mxCell id="elem_a3" value="Interface utilisateur" style="html=1;outlineConnect=0;whiteSpace=wrap;fillColor=#99ffff;shape=mxgraph.archimate3.application;appType=interface;archiType=square;" vertex="1" parent="1"><mxGeometry x="400" y="700" width="120" height="60" as="geometry" /></mxCell><mxCell id="elem_a4" value="Service de chat intégré" style="html=1;outlineConnect=0;whiteSpace=wrap;fillColor=#99ffff;shape=mxgraph.archimate3.application;appType=serv;archiType=rounded;" vertex="1" parent="1"><mxGeometry x="550" y="700" width="120" height="60" as="geometry" /></mxCell><mxCell id="elem_a5" value="Données de projet" style="html=1;outlineConnect=0;whiteSpace=wrap;fillColor=#99ffff;shape=mxgraph.archimate3.application;appType=passive;archiType=square;" vertex="1" parent="1"><mxGeometry x="700" y="700" width="120" height="60" as="geometry" /></mxCell><mxCell id="conn_elem_a1_elem_a2" style="html=1;shape=mxgraph.archimate3.relationship;archiType=association;" edge="1" source="elem_a1" target="elem_a2" parent="1"><mxGeometry relative="1" as="geometry" /></mxCell><mxCell id="conn_elem_a1_elem_a3" style="html=1;shape=mxgraph.archimate3.relationship;archiType=association;" edge="1" source="elem_a1" target="elem_a3" parent="1"><mxGeometry relative="1" as="geometry" /></mxCell><mxCell id="conn_elem_a1_elem_a4" style="html=1;shape=mxgraph.archimate3.relationship;archiType=association;" edge="1" source="elem_a1" target="elem_a4" parent="1"><mxGeometry relative="1" as="geometry" /></mxCell><mxCell id="conn_elem_a2_elem_a5" style="html=1;shape=mxgraph.archimate3.relationship;archiType=access;" edge="1" source="elem_a2" target="elem_a5" parent="1"><mxGeometry relative="1" as="geometry" /></mxCell><mxCell id="label_Technology_Layer" value="Technology Layer" style="text;html=1;align=center;verticalAlign=middle;resizable=0;points=[];" vertex="1" parent="1"><mxGeometry x="50" y="960" width="200" height="30" as="geometry" /></mxCell><mxCell id="elem_t1" value="Serveur cloud" style="html=1;outlineConnect=0;whiteSpace=wrap;fillColor=#AFFFAF;shape=mxgraph.archimate3.application;appType=node;archiType=square;" vertex="1" parent="1"><mxGeometry x="100" y="1000" width="120" height="60" as="geometry" /></mxCell><mxCell id="elem_t2" value="Service de sauvegarde" style="html=1;outlineConnect=0;whiteSpace=wrap;fillColor=#AFFFAF;shape=mxgraph.archimate3.application;appType=serv;archiType=rounded;" vertex="1" parent="1"><mxGeometry x="250" y="1000" width="120" height="60" as="geometry" /></mxCell><mxCell id="elem_t3" value="Réseau de communication" style="html=1;outlineConnect=0;whiteSpace=wrap;fillColor=#AFFFAF;shape=mxgraph.archimate3.application;appType=netw;archiType=square;" vertex="1" parent="1"><mxGeometry x="400" y="1000" width="120" height="60" as="geometry" /></mxCell><mxCell id="conn_elem_t1_elem_t2" style="html=1;shape=mxgraph.archimate3.relationship;archiType=serving;" edge="1" source="elem_t1" target="elem_t2" parent="1"><mxGeometry relative="1" as="geometry" /></mxCell><mxCell id="conn_elem_t1_elem_a1" style="html=1;shape=mxgraph.archimate3.relationship;archiType=serving;" edge="1" source="elem_t1" target="elem_a1" parent="1"><mxGeometry relative="1" as="geometry" /></mxCell><mxCell id="conn_elem_t3_elem_a4" style="html=1;shape=mxgraph.archimate3.relationship;archiType=serving;" edge="1" source="elem_t3" target="elem_a4" parent="1"><mxGeometry relative="1" as="geometry" /></mxCell></root></mxGraphModel></diagram></mxfile>